<svg xmlns="http://www.w3.org/2000/svg" xmlns:xlink="http://www.w3.org/1999/xlink" version="1.1" x="0px" y="0px" viewBox="0 0 100 125" enable-background="new 0 0 100 100" xml:space="preserve"><path d="M70.278,53.326L49.653,10.07c-0.165-0.346-0.513-0.567-0.896-0.57c-0.369,0.035-0.734,0.214-0.904,0.558l-18.5,37.5  c-0.131,0.266-0.137,0.577-0.017,0.849l19.562,44c0.156,0.352,0.501,0.583,0.886,0.593c0.009,0,0.019,0,0.027,0  c0.375,0,0.719-0.21,0.89-0.544l19.562-38.244C70.407,53.935,70.412,53.607,70.278,53.326z M63.409,49.661l-9.032-25.035  L67.45,52.042L63.409,49.661z M45.28,59.774L48.684,87L32.296,50.14L45.28,59.774z M49.068,13.49l0.941,1.975l12.375,34.303  l-16.08,8.856L49.068,13.49z M49.997,89.444L46.28,59.779l15.87-8.74L50.242,88.965L49.997,89.444z M48.021,14.239l-2.706,44.316  L31.47,48.283l-0.116-0.261L48.021,14.239z M52.956,83.66l10.333-32.91l4.931,2.905l0.041,0.085L52.956,83.66z"/><text x="0" y="115" fill="#000000" font-size="5px" font-weight="bold" font-family="'Helvetica Neue', Helvetica, Arial-Unicode, Arial, Sans-serif">Created by Dima Lagunov</text><text x="0" y="120" fill="#000000" font-size="5px" font-weight="bold" font-family="'Helvetica Neue', Helvetica, Arial-Unicode, Arial, Sans-serif">from the Noun Project</text></svg>